# Blender v2.81 (sub 16) OBJ File: ''
# www.blender.org
mtllib block.mtl
o 立方体
v -1.000000 -0.500000 1.000000
v -1.000000 0.500000 1.000000
v -1.000000 -0.500000 -1.000000
v -1.000000 0.500000 -1.000000
v 1.000000 -0.500000 1.000000
v 1.000000 0.500000 1.000000
v 1.000000 -0.500000 -1.000000
v 1.000000 0.500000 -1.000000
vt 0.250043 0.749957
vt 0.000087 0.749957
vt 0.000087 0.500000
vt 0.250043 0.500000
vt 0.250043 0.000087
vt 0.500000 0.000087
vt 0.500000 0.250043
vt 0.250043 0.250043
vt 0.500000 0.500000
vt 0.500000 0.749957
vt 0.500000 0.999913
vt 0.250043 0.999913
vt 0.749957 0.749957
vt 0.749957 0.500000
vn 1.0000 0.0000 0.0000
vn 0.0000 0.0000 1.0000
vn 0.0000 -1.0000 0.0000
vn 0.0000 1.0000 0.0000
vn -1.0000 0.0000 0.0000
vn 0.0000 0.0000 -1.0000
g 立方体_立方体_マテリアル
usemtl マテリアル
s off
f 8/1/1 6/2/1 5/3/1 7/4/1
f 6/5/2 2/6/2 1/7/2 5/8/2
f 7/4/3 5/8/3 1/7/3 3/9/3
f 4/10/4 2/11/4 6/12/4 8/1/4
f 2/13/5 4/10/5 3/9/5 1/14/5
f 4/10/6 8/1/6 7/4/6 3/9/6
