# Blender v2.81 (sub 16) OBJ File: ''
# www.blender.org
mtllib untitled.mtl
o 立方体.001
v 2.288655 -0.190723 3.814425
v 2.288655 0.190719 3.814425
v -2.288655 0.190719 3.814425
v -2.288655 -0.190723 3.814425
v 3.814425 -0.190721 -2.288655
v 3.814425 0.190721 -2.288655
v 3.814425 0.190721 2.288655
v 3.814425 -0.190721 2.288655
v 3.739749 0.190721 -2.760144
v 3.523029 0.190723 -3.185480
v 3.185480 0.190723 -3.523029
v 2.760144 0.190723 -3.739749
v 2.288655 0.190723 -3.814425
v -2.288655 0.190723 -3.814425
v -2.760144 0.190723 -3.739749
v -3.185480 0.190723 -3.523029
v -3.523029 0.190723 -3.185480
v -3.739749 0.190721 -2.760144
v -3.814425 0.190721 -2.288655
v -3.814425 0.190721 2.288655
v -3.739749 0.190721 2.760144
v -3.523029 0.190719 3.185480
v -3.185480 0.190719 3.523029
v -2.760144 0.190719 3.739749
v 2.760144 0.190719 3.739749
v 3.185480 0.190719 3.523029
v 3.523029 0.190719 3.185480
v 3.739749 0.190721 2.760144
v -3.814425 -0.190721 2.288655
v -3.814425 -0.190721 -2.288655
v -2.288655 -0.190719 -3.814425
v 2.288655 -0.190719 -3.814425
v -2.760144 -0.190723 3.739749
v -3.185480 -0.190723 3.523029
v -3.523029 -0.190723 3.185480
v -3.739749 -0.190721 2.760144
v -2.760144 -0.190719 -3.739749
v -3.185480 -0.190719 -3.523029
v -3.523029 -0.190719 -3.185480
v -3.739749 -0.190721 -2.760144
v 3.739749 -0.190721 -2.760144
v 3.523029 -0.190719 -3.185480
v 3.185480 -0.190719 -3.523029
v 2.760144 -0.190719 -3.739749
v 2.760144 -0.190723 3.739749
v 3.185480 -0.190723 3.523029
v 3.523029 -0.190723 3.185480
v 3.739749 -0.190721 2.760144
vt 0.783353 0.914261
vt 0.769662 0.914261
vt 0.769661 0.749965
vt 0.783353 0.749965
vt 0.783353 0.164361
vt 0.769662 0.164361
vt 0.769662 0.000066
vt 0.783353 0.000066
vt 0.411220 0.499153
vt 0.441315 0.503906
vt 0.468468 0.517726
vt 0.490022 0.539261
vt 0.503866 0.566402
vt 0.508646 0.596493
vt 0.508774 0.888643
vt 0.504021 0.918738
vt 0.490201 0.945892
vt 0.468666 0.967445
vt 0.441525 0.981289
vt 0.411434 0.986069
vt 0.119284 0.986198
vt 0.089189 0.981445
vt 0.062036 0.967624
vt 0.040482 0.946090
vt 0.026638 0.918948
vt 0.021858 0.888857
vt 0.021730 0.596708
vt 0.026483 0.566612
vt 0.040303 0.539459
vt 0.061838 0.517905
vt 0.088979 0.504061
vt 0.119070 0.499281
vt 0.783352 0.664293
vt 0.769661 0.664293
vt 0.769661 0.499998
vt 0.783352 0.499998
vt 0.783353 0.414326
vt 0.769661 0.414326
vt 0.769662 0.250031
vt 0.783353 0.250032
vt 0.769661 0.732831
vt 0.783353 0.732831
vt 0.769661 0.715696
vt 0.783353 0.715696
vt 0.769661 0.698562
vt 0.783353 0.698562
vt 0.769661 0.681428
vt 0.783352 0.681428
vt 0.783353 0.431461
vt 0.769661 0.431461
vt 0.783353 0.448595
vt 0.769661 0.448595
vt 0.783352 0.465729
vt 0.769661 0.465729
vt 0.783352 0.482863
vt 0.769661 0.482863
vt 0.783353 0.181495
vt 0.769662 0.181495
vt 0.783353 0.198629
vt 0.769662 0.198629
vt 0.783353 0.215763
vt 0.769662 0.215763
vt 0.783353 0.232897
vt 0.769662 0.232897
vt 0.783353 0.931396
vt 0.769662 0.931396
vt 0.783353 0.948530
vt 0.769662 0.948530
vt 0.783353 0.965665
vt 0.769662 0.965665
vt 0.783353 0.982799
vt 0.769662 0.982799
vt 0.783353 0.999934
vt 0.769662 0.999934
vt 0.119070 0.499045
vt 0.088975 0.494292
vt 0.061821 0.480472
vt 0.040267 0.458937
vt 0.026423 0.431796
vt 0.021644 0.401705
vt 0.021515 0.109555
vt 0.026268 0.079460
vt 0.040088 0.052306
vt 0.061623 0.030753
vt 0.088764 0.016909
vt 0.118855 0.012129
vt 0.411005 0.012000
vt 0.441100 0.016753
vt 0.468254 0.030574
vt 0.489808 0.052109
vt 0.503652 0.079250
vt 0.508431 0.109341
vt 0.508560 0.401491
vt 0.503807 0.431586
vt 0.489986 0.458739
vt 0.468452 0.480293
vt 0.441311 0.494137
vt 0.411220 0.498917
vn -0.0000 0.0000 1.0000
vn 0.0000 0.0002 1.0000
vn 1.0000 -0.0002 0.0000
vn 1.0000 -0.0000 0.0000
vn 1.0000 0.0002 -0.0000
vn -0.0000 1.0000 0.0000
vn -1.0000 0.0000 -0.0000
vn 0.0000 -0.0002 -1.0000
vn 0.0000 0.0000 -1.0000
vn -0.3090 0.0000 0.9511
vn -0.5878 0.0000 0.8090
vn -0.8090 0.0000 0.5878
vn -0.9511 0.0000 0.3090
vn -0.3090 0.0000 -0.9511
vn -0.5878 0.0000 -0.8090
vn -0.8090 0.0000 -0.5878
vn -0.9511 0.0000 -0.3090
vn 0.9511 0.0000 -0.3090
vn 0.8090 0.0000 -0.5878
vn 0.5878 0.0000 -0.8090
vn 0.3090 0.0000 -0.9511
vn 0.3090 0.0000 0.9511
vn 0.5878 0.0000 0.8090
vn 0.8090 0.0000 0.5878
vn 0.9511 0.0000 0.3090
vn -0.0000 -1.0000 -0.0000
usemtl Material.001
s 1
f 1/1/1 2/2/1 3/3/2 4/4/1
f 5/5/3 6/6/4 7/7/5 8/8/4
f 6/9/6 9/10/6 10/11/6 11/12/6 12/13/6 13/14/6 14/15/6 15/16/6 16/17/6 17/18/6 18/19/6 19/20/6 20/21/6 21/22/6 22/23/6 23/24/6 24/25/6 3/26/6 2/27/6 25/28/6 26/29/6 27/30/6 28/31/6 7/32/6
f 29/33/7 20/34/7 19/35/7 30/36/7
f 31/37/8 14/38/9 13/39/9 32/40/9
f 4/4/1 3/3/2 24/41/10 33/42/10
f 33/42/10 24/41/10 23/43/11 34/44/11
f 34/44/11 23/43/11 22/45/12 35/46/12
f 35/46/12 22/45/12 21/47/13 36/48/13
f 36/48/13 21/47/13 20/34/7 29/33/7
f 14/38/9 31/37/8 37/49/14 15/50/14
f 15/50/14 37/49/14 38/51/15 16/52/15
f 16/52/15 38/51/15 39/53/16 17/54/16
f 17/54/16 39/53/16 40/55/17 18/56/17
f 18/56/17 40/55/17 30/36/7 19/35/7
f 6/6/4 5/5/3 41/57/18 9/58/18
f 9/58/18 41/57/18 42/59/19 10/60/19
f 10/60/19 42/59/19 43/61/20 11/62/20
f 11/62/20 43/61/20 44/63/21 12/64/21
f 12/64/21 44/63/21 32/40/9 13/39/9
f 2/2/1 1/1/1 45/65/22 25/66/22
f 25/66/22 45/65/22 46/67/23 26/68/23
f 26/68/23 46/67/23 47/69/24 27/70/24
f 27/70/24 47/69/24 48/71/25 28/72/25
f 28/72/25 48/71/25 8/73/4 7/74/5
f 30/75/26 40/76/26 39/77/26 38/78/26 37/79/26 31/80/26 32/81/26 44/82/26 43/83/26 42/84/26 41/85/26 5/86/26 8/87/26 48/88/26 47/89/26 46/90/26 45/91/26 1/92/26 4/93/26 33/94/26 34/95/26 35/96/26 36/97/26 29/98/26
